<svg width="270" height="88" viewBox="0 0 270 88" fill="none" xmlns="http://www.w3.org/2000/svg">
<rect x="16" y="24" width="40" height="40" rx="6" fill="url(#paint0_linear_719_516)"/>
<path d="M79.088 57.36C77.072 57.36 75.128 56.964 73.256 56.172C71.384 55.38 69.728 54.264 68.288 52.824L70.592 50.16C71.96 51.504 73.352 52.5 74.768 53.148C76.208 53.796 77.708 54.12 79.268 54.12C80.492 54.12 81.56 53.952 82.472 53.616C83.408 53.256 84.128 52.752 84.632 52.104C85.136 51.456 85.388 50.724 85.388 49.908C85.388 48.78 84.992 47.916 84.2 47.316C83.408 46.716 82.1 46.26 80.276 45.948L76.064 45.264C73.76 44.856 72.032 44.112 70.88 43.032C69.752 41.952 69.188 40.512 69.188 38.712C69.188 37.272 69.572 36.012 70.34 34.932C71.108 33.828 72.188 32.976 73.58 32.376C74.996 31.776 76.628 31.476 78.476 31.476C80.3 31.476 82.088 31.776 83.84 32.376C85.616 32.952 87.212 33.792 88.628 34.896L86.54 37.776C83.828 35.712 81.08 34.68 78.296 34.68C77.192 34.68 76.232 34.836 75.416 35.148C74.6 35.46 73.964 35.904 73.508 36.48C73.052 37.032 72.824 37.68 72.824 38.424C72.824 39.456 73.172 40.248 73.868 40.8C74.564 41.328 75.716 41.712 77.324 41.952L81.392 42.636C84.056 43.068 86.012 43.848 87.26 44.976C88.508 46.104 89.132 47.652 89.132 49.62C89.132 51.156 88.712 52.512 87.872 53.688C87.032 54.84 85.856 55.74 84.344 56.388C82.832 57.036 81.08 57.36 79.088 57.36ZM92.2021 57V31.8L95.8021 31.008V40.548C97.2181 39.06 99.0541 38.316 101.31 38.316C102.726 38.316 103.962 38.616 105.018 39.216C106.098 39.816 106.938 40.656 107.538 41.736C108.162 42.816 108.474 44.064 108.474 45.48V57H104.874V46.092C104.874 44.652 104.466 43.524 103.65 42.708C102.834 41.868 101.718 41.448 100.302 41.448C99.3421 41.448 98.4781 41.652 97.7101 42.06C96.9421 42.468 96.3061 43.056 95.8021 43.824V57H92.2021ZM121.34 57.36C119.564 57.36 117.944 56.94 116.48 56.1C115.04 55.26 113.9 54.12 113.06 52.68C112.22 51.24 111.8 49.632 111.8 47.856C111.8 46.08 112.22 44.472 113.06 43.032C113.9 41.592 115.04 40.452 116.48 39.612C117.944 38.748 119.564 38.316 121.34 38.316C123.14 38.316 124.76 38.748 126.2 39.612C127.64 40.452 128.78 41.592 129.62 43.032C130.46 44.472 130.88 46.08 130.88 47.856C130.88 49.632 130.46 51.24 129.62 52.68C128.78 54.12 127.64 55.26 126.2 56.1C124.76 56.94 123.14 57.36 121.34 57.36ZM121.34 54.192C122.468 54.192 123.488 53.916 124.4 53.364C125.312 52.788 126.032 52.02 126.56 51.06C127.088 50.1 127.352 49.02 127.352 47.82C127.352 46.644 127.076 45.588 126.524 44.652C125.996 43.692 125.276 42.924 124.364 42.348C123.476 41.772 122.468 41.484 121.34 41.484C120.212 41.484 119.192 41.772 118.28 42.348C117.392 42.924 116.672 43.692 116.12 44.652C115.592 45.588 115.328 46.644 115.328 47.82C115.328 49.02 115.592 50.1 116.12 51.06C116.648 52.02 117.368 52.788 118.28 53.364C119.192 53.916 120.212 54.192 121.34 54.192ZM134.284 64.344V38.676H137.848V40.44C139.384 39.072 141.256 38.388 143.464 38.388C145.192 38.388 146.752 38.808 148.144 39.648C149.56 40.488 150.676 41.616 151.492 43.032C152.308 44.448 152.716 46.044 152.716 47.82C152.716 49.596 152.296 51.204 151.456 52.644C150.64 54.06 149.524 55.188 148.108 56.028C146.716 56.868 145.144 57.288 143.392 57.288C142.384 57.288 141.412 57.132 140.476 56.82C139.54 56.484 138.676 56.016 137.884 55.416V64.344H134.284ZM142.996 54.156C144.172 54.156 145.216 53.88 146.128 53.328C147.064 52.776 147.808 52.032 148.36 51.096C148.912 50.136 149.188 49.056 149.188 47.856C149.188 46.656 148.912 45.576 148.36 44.616C147.808 43.656 147.064 42.9 146.128 42.348C145.216 41.796 144.172 41.52 142.996 41.52C141.964 41.52 141.004 41.712 140.116 42.096C139.228 42.48 138.484 43.02 137.884 43.716V51.996C138.484 52.668 139.228 53.196 140.116 53.58C141.028 53.964 141.988 54.156 142.996 54.156ZM164.935 57.324C163.135 57.324 161.503 56.904 160.039 56.064C158.599 55.224 157.447 54.084 156.583 52.644C155.743 51.204 155.323 49.596 155.323 47.82C155.323 46.068 155.731 44.484 156.547 43.068C157.363 41.628 158.467 40.488 159.859 39.648C161.251 38.784 162.799 38.352 164.503 38.352C166.207 38.352 167.719 38.784 169.039 39.648C170.359 40.488 171.403 41.64 172.171 43.104C172.963 44.544 173.359 46.176 173.359 48V49.008H158.923C159.115 50.016 159.487 50.916 160.039 51.708C160.615 52.5 161.335 53.124 162.199 53.58C163.087 54.036 164.047 54.264 165.079 54.264C165.967 54.264 166.819 54.132 167.635 53.868C168.475 53.58 169.171 53.172 169.723 52.644L172.027 54.912C170.947 55.728 169.831 56.34 168.679 56.748C167.551 57.132 166.303 57.324 164.935 57.324ZM158.959 46.308H169.795C169.651 45.348 169.315 44.508 168.787 43.788C168.283 43.044 167.647 42.468 166.879 42.06C166.135 41.628 165.319 41.412 164.431 41.412C163.519 41.412 162.679 41.616 161.911 42.024C161.143 42.432 160.495 43.008 159.967 43.752C159.463 44.472 159.127 45.324 158.959 46.308ZM161.911 35.292L165.223 30.9H169.543L164.935 35.292H161.911ZM182.338 57.324C181.018 57.324 179.854 57.096 178.846 56.64C177.838 56.16 177.046 55.5 176.47 54.66C175.894 53.82 175.606 52.848 175.606 51.744C175.606 50.016 176.266 48.66 177.586 47.676C178.906 46.668 180.718 46.164 183.022 46.164C184.822 46.164 186.49 46.512 188.026 47.208V45.264C188.026 43.944 187.642 42.96 186.874 42.312C186.13 41.664 185.026 41.34 183.562 41.34C182.722 41.34 181.846 41.472 180.934 41.736C180.022 41.976 179.002 42.36 177.874 42.888L176.542 40.188C177.934 39.54 179.23 39.072 180.43 38.784C181.63 38.472 182.842 38.316 184.066 38.316C186.442 38.316 188.278 38.88 189.574 40.008C190.894 41.136 191.554 42.744 191.554 44.832V57H188.026V55.416C187.21 56.064 186.334 56.544 185.398 56.856C184.462 57.168 183.442 57.324 182.338 57.324ZM179.062 51.672C179.062 52.56 179.434 53.28 180.178 53.832C180.946 54.384 181.942 54.66 183.166 54.66C184.126 54.66 185.002 54.516 185.794 54.228C186.61 53.94 187.354 53.496 188.026 52.896V49.8C187.33 49.392 186.598 49.104 185.83 48.936C185.086 48.744 184.246 48.648 183.31 48.648C181.99 48.648 180.946 48.924 180.178 49.476C179.434 50.004 179.062 50.736 179.062 51.672ZM195.702 57V38.676H199.302V40.44C200.67 39.024 202.386 38.316 204.45 38.316C205.698 38.316 206.802 38.592 207.762 39.144C208.746 39.696 209.526 40.44 210.102 41.376C210.87 40.368 211.77 39.612 212.802 39.108C213.834 38.58 214.998 38.316 216.294 38.316C217.662 38.316 218.85 38.616 219.858 39.216C220.89 39.816 221.694 40.656 222.27 41.736C222.87 42.816 223.17 44.064 223.17 45.48V57H219.57V46.092C219.57 44.652 219.186 43.524 218.418 42.708C217.674 41.868 216.654 41.448 215.358 41.448C214.47 41.448 213.666 41.652 212.946 42.06C212.226 42.468 211.602 43.092 211.074 43.932C211.122 44.172 211.158 44.424 211.182 44.688C211.206 44.952 211.218 45.216 211.218 45.48V57H207.654V46.092C207.654 44.652 207.27 43.524 206.502 42.708C205.758 41.868 204.738 41.448 203.442 41.448C202.578 41.448 201.798 41.64 201.102 42.024C200.406 42.384 199.806 42.936 199.302 43.68V57H195.702ZM236.092 57.324C234.292 57.324 232.66 56.904 231.196 56.064C229.756 55.224 228.604 54.084 227.74 52.644C226.9 51.204 226.48 49.596 226.48 47.82C226.48 46.068 226.888 44.484 227.704 43.068C228.52 41.628 229.624 40.488 231.016 39.648C232.408 38.784 233.956 38.352 235.66 38.352C237.364 38.352 238.876 38.784 240.196 39.648C241.516 40.488 242.56 41.64 243.328 43.104C244.12 44.544 244.516 46.176 244.516 48V49.008H230.08C230.272 50.016 230.644 50.916 231.196 51.708C231.772 52.5 232.492 53.124 233.356 53.58C234.244 54.036 235.204 54.264 236.236 54.264C237.124 54.264 237.976 54.132 238.792 53.868C239.632 53.58 240.328 53.172 240.88 52.644L243.184 54.912C242.104 55.728 240.988 56.34 239.836 56.748C238.708 57.132 237.46 57.324 236.092 57.324ZM230.116 46.308H240.952C240.808 45.348 240.472 44.508 239.944 43.788C239.44 43.044 238.804 42.468 238.036 42.06C237.292 41.628 236.476 41.412 235.588 41.412C234.676 41.412 233.836 41.616 233.068 42.024C232.3 42.432 231.652 43.008 231.124 43.752C230.62 44.472 230.284 45.324 230.116 46.308ZM248.268 49.8L247.836 31.62H251.544L251.112 49.8H248.268ZM249.708 57.252C249.084 57.252 248.544 57.036 248.088 56.604C247.632 56.148 247.404 55.608 247.404 54.984C247.404 54.36 247.632 53.832 248.088 53.4C248.544 52.944 249.084 52.716 249.708 52.716C250.332 52.716 250.86 52.944 251.292 53.4C251.748 53.832 251.976 54.36 251.976 54.984C251.976 55.608 251.748 56.148 251.292 56.604C250.86 57.036 250.332 57.252 249.708 57.252Z" fill="url(#paint1_linear_719_516)" fill-opacity="0.8"/>
<path d="M35.9223 55.32C34.1089 55.32 32.3383 54.9893 30.6102 54.328C28.8822 53.6453 27.3462 52.6853 26.0023 51.448L28.6583 48.12C29.9596 49.272 31.2076 50.104 32.4023 50.616C33.6183 51.128 34.8983 51.384 36.2423 51.384C37.1809 51.384 37.9916 51.2773 38.6743 51.064C39.3569 50.8293 39.8796 50.4987 40.2423 50.072C40.6263 49.6453 40.8183 49.144 40.8183 48.568C40.8183 47.8 40.5409 47.2133 39.9863 46.808C39.4316 46.3813 38.4823 46.0507 37.1383 45.816L32.6903 45.048C30.7916 44.728 29.3409 44.056 28.3383 43.032C27.3569 42.008 26.8663 40.6853 26.8663 39.064C26.8663 37.6773 27.2183 36.472 27.9223 35.448C28.6476 34.424 29.6609 33.6453 30.9623 33.112C32.2849 32.5573 33.8529 32.28 35.6663 32.28C37.3089 32.28 38.9409 32.5573 40.5623 33.112C42.2049 33.6667 43.6556 34.4347 44.9143 35.416L42.4183 38.872C40.0716 37.08 37.7143 36.184 35.3463 36.184C34.5143 36.184 33.7889 36.2907 33.1703 36.504C32.5516 36.7173 32.0716 37.016 31.7303 37.4C31.4103 37.7627 31.2503 38.2 31.2503 38.712C31.2503 39.3947 31.4956 39.928 31.9863 40.312C32.4769 40.6747 33.2983 40.952 34.4503 41.144L38.6743 41.848C40.9143 42.2107 42.5889 42.9253 43.6983 43.992C44.8076 45.0373 45.3623 46.424 45.3623 48.152C45.3623 49.6027 44.9783 50.872 44.2103 51.96C43.4423 53.0267 42.3436 53.8587 40.9143 54.456C39.5063 55.032 37.8423 55.32 35.9223 55.32Z" fill="white"/>
<defs>
<linearGradient id="paint0_linear_719_516" x1="36" y1="24" x2="36" y2="64" gradientUnits="userSpaceOnUse">
<stop offset="0.549" stop-color="#AF8F6F"/>
<stop offset="0.974" stop-color="#543310"/>
</linearGradient>
<linearGradient id="paint1_linear_719_516" x1="154" y1="26" x2="154" y2="57" gradientUnits="userSpaceOnUse">
<stop offset="0.741935" stop-color="#74512D"/>
<stop offset="1" stop-color="#543310"/>
</linearGradient>
</defs>
</svg>
